<svg xmlns="http://www.w3.org/2000/svg" version="1.1" xmlns:xlink="http://www.w3.org/1999/xlink" xmlns:svgjs="http://svgjs.dev/svgjs" width="1000" height="1125" viewBox="0 0 1000 1125"><g transform="matrix(1,0,0,1,0.0011008540699322111,0)"><svg viewBox="0 0 320 360" data-background-color="#ffffff" preserveAspectRatio="xMidYMid meet" height="1125" width="1000" xmlns="http://www.w3.org/2000/svg" xmlns:xlink="http://www.w3.org/1999/xlink"><g id="tight-bounds" transform="matrix(1,0,0,1,0.00010353528136874957,0)"><svg viewBox="0 0 320 360" height="360" width="320"><g><svg></svg></g><g><svg viewBox="0 0 320 360" height="360" width="320"><g><path xmlns="http://www.w3.org/2000/svg" d="M307.925 179.999l6.575-11.387c11.322-19.607 4.604-44.679-15.003-56.001l-11.387-6.575v-13.151c0-22.639-18.354-40.994-40.994-40.994h-13.151l-6.575-11.387c-11.322-19.607-36.393-26.325-56.001-15.003l-11.39 6.572-11.387-6.576c-19.607-11.318-44.679-4.6-56.001 15.007l-6.575 11.387h-13.151c-22.639 0-40.994 18.354-40.994 40.994v13.151l-11.387 6.575c-19.607 11.322-26.325 36.393-15.003 56.001l6.572 11.387-6.576 11.387c-11.318 19.607-4.6 44.679 15.007 56l11.387 6.576v13.15c0 22.639 18.354 40.994 40.994 40.994h13.151l6.575 11.387c11.322 19.607 36.393 26.325 56.001 15.003l11.387-6.571 11.387 6.575c19.607 11.322 44.679 4.604 56-15.003l6.576-11.387h13.15c22.639 0 40.994-18.354 40.994-40.994v-13.151l11.387-6.575c19.607-11.322 26.325-36.393 15.003-56.001zM297.702 115.716c8.655 4.996 14.842 13.062 17.428 22.713 2.586 9.65 1.261 19.734-3.735 28.384l-5.538 9.596-17.747-30.74v-35.494zM251.155 271.155l-57.791 33.365h-66.731l-57.791-33.365-33.365-57.791v-66.731l33.365-57.791 57.791-33.365h66.731l57.791 33.365 33.365 57.791v66.731zM284.517 220.539v31.351l-27.151 15.676zM247.566 277.366l-15.676 27.151h-31.351zM187.15 308.106l-27.151 15.676-27.151-15.676zM119.459 304.517h-31.352l-15.676-27.151zM62.632 267.566l-27.151-15.676v-31.351zM31.891 207.15l-15.675-27.151 15.675-27.151zM35.481 139.459v-31.352l27.151-15.676zM72.431 82.632l15.676-27.151h31.352zM132.848 51.891l27.151-15.675 27.151 15.675zM200.539 55.481h31.351l15.676 27.151zM257.366 92.431l27.151 15.676v31.352zM288.106 152.848l15.676 27.151-15.676 27.151zM247.112 55.481c9.992 0 19.384 3.889 26.452 10.956 7.063 7.063 10.956 16.46 10.957 26.452v11.079l-30.741-17.747-17.747-30.74zM173.18 28.606c8.655-4.996 18.735-6.322 28.385-3.735 9.65 2.586 17.716 8.777 22.712 17.428l5.538 9.596h-35.494l-30.741-17.747zM95.716 42.295c4.996-8.655 13.062-14.842 22.713-17.428 9.65-2.586 19.734-1.261 28.384 3.736l9.596 5.537-30.74 17.747h-35.494zM35.481 92.885c0-9.992 3.889-19.384 10.956-26.452 7.063-7.063 16.46-10.956 26.452-10.956h11.079l-17.747 30.74-30.74 17.747zM8.606 166.817c-4.996-8.655-6.322-18.735-3.735-28.385 2.586-9.65 8.777-17.716 17.428-22.712l9.596-5.538v35.495l-17.747 30.74zM22.295 244.281c-8.655-4.996-14.842-13.062-17.428-22.712-2.586-9.65-1.261-19.734 3.736-28.385l5.537-9.596 17.747 30.74v35.495zM72.885 304.517c-9.992 0-19.384-3.889-26.452-10.957-7.063-7.063-10.956-16.46-10.956-26.451v-11.08l30.74 17.747 17.747 30.741zM146.817 331.391c-8.655 4.996-18.735 6.322-28.385 3.735-9.65-2.586-17.716-8.777-22.712-17.428l-5.538-9.596h35.495l30.74 17.747zM224.281 317.702c-4.996 8.655-13.062 14.842-22.712 17.428-9.65 2.586-19.734 1.261-28.385-3.735l-9.596-5.538 30.74-17.747h35.495zM284.517 267.112c0 9.992-3.889 19.384-10.957 26.452-7.063 7.063-16.46 10.956-26.451 10.957h-11.08l17.747-30.741 30.741-17.747zM315.13 221.565c-2.586 9.65-8.777 17.716-17.428 22.712l-9.596 5.538v-35.494l17.747-30.741 5.538 9.596c4.996 8.658 6.326 18.739 3.739 28.389z" fill="#bb84e8" fill-rule="nonzero" stroke="none" stroke-width="1" stroke-linecap="butt" stroke-linejoin="miter" stroke-miterlimit="10" stroke-dasharray="" stroke-dashoffset="0" font-family="none" font-weight="none" font-size="none" text-anchor="none" style="mix-blend-mode: normal" data-fill-palette-color="tertiary"></path></g><g transform="matrix(1,0,0,1,102.47993175576086,90)"><svg viewBox="0 0 115.04013648847828 180" height="180" width="115.04013648847828"><g><svg viewBox="0 0 115.04013648847828 180" height="180" width="115.04013648847828"><g><svg viewBox="0 0 192 300.41688974753015" height="180" width="115.04013648847828"><g transform="matrix(1,0,0,1,0,167.55446674958353)"><svg viewBox="0 0 192 132.86242299794662" height="132.86242299794662" width="192"><g id="textblocktransform"><svg viewBox="0 0 192 132.86242299794662" height="132.86242299794662" width="192" id="textblock"><g><svg viewBox="0 0 192 132.86242299794662" height="132.86242299794662" width="192"><g transform="matrix(1,0,0,1,0,0)"><svg width="192" viewBox="3.8499999046325684 -33.70000076293945 48.70000076293945 33.70000076293945" height="132.86242299794662" data-palette-color="#bb84e8"><path d="M13.1-12.4L13.1-12.4 7.9-12.4 7.9 0 3.85 0 3.85-33.7 12.7-33.7Q18.55-33.7 21.93-30.68 25.3-27.65 25.3-22.85L25.3-22.85Q25.3-18.35 21.95-15.38 18.6-12.4 13.1-12.4ZM12.75-30.25L12.75-30.25 7.9-30.25 7.9-15.85 13.1-15.85Q16.9-15.85 19.05-17.82 21.2-19.8 21.2-22.85L21.2-22.85Q21.2-26.25 19-28.25 16.8-30.25 12.75-30.25ZM40.35-12.4L40.35-12.4 35.15-12.4 35.15 0 31.1 0 31.1-33.7 39.95-33.7Q45.8-33.7 49.17-30.68 52.55-27.65 52.55-22.85L52.55-22.85Q52.55-18.35 49.2-15.38 45.85-12.4 40.35-12.4ZM40-30.25L40-30.25 35.15-30.25 35.15-15.85 40.35-15.85Q44.15-15.85 46.3-17.82 48.45-19.8 48.45-22.85L48.45-22.85Q48.45-26.25 46.25-28.25 44.05-30.25 40-30.25Z" opacity="1" transform="matrix(1,0,0,1,0,0)" fill="#bb84e8" class="wordmark-text-0" data-fill-palette-color="primary" id="text-0"></path></svg></g></svg></g></svg></g></svg></g><g transform="matrix(1,0,0,1,36.672,0)"><svg viewBox="0 0 118.656 136.18883737792027" height="136.18883737792027" width="118.656"><g><svg xmlns="http://www.w3.org/2000/svg" xmlns:xlink="http://www.w3.org/1999/xlink" version="1.1" x="0" y="0" viewBox="13.099998474121094 8 69.70086669921875 80" style="enable-background:new 0 0 96 96;" xml:space="preserve" height="136.18883737792027" width="118.656" class="icon-icon-0" data-fill-palette-color="accent" id="icon-0"><g fill="#9b7bc5" data-fill-palette-color="accent"><path d="M48 43.3c9.7 0 17.7-7.9 17.7-17.7C65.7 15.9 57.7 8 48 8s-17.7 7.9-17.7 17.7C30.3 35.4 38.3 43.3 48 43.3z" fill="#9b7bc5" data-fill-palette-color="accent"></path><path d="M63.4 44.3c-0.6 0-1.1 0.2-1.5 0.6-3.7 3.6-8.7 5.6-13.9 5.6s-10.1-2-13.9-5.6c-0.4-0.4-1-0.6-1.5-0.6-10.9 0.8-19.5 10-19.5 21V75c0 7.2 5.8 13 13 13h43.7c7.2 0 13-5.8 13-13v-9.7C82.9 54.3 74.3 45.1 63.4 44.3zM39.7 72.6c0.8 0.8 0.8 2 0 2.8-0.4 0.4-0.9 0.6-1.4 0.6s-1-0.2-1.4-0.6l-5.1-5.1c-0.8-0.8-0.8-2 0-2.8l5.1-5.1c0.8-0.8 2-0.8 2.8 0 0.8 0.8 0.8 2.1 0 2.9L36 69 39.7 72.6zM53.1 59.6l-5.6 19.9c-0.2 0.9-1 1.5-1.9 1.5-0.1 0-0.3 0-0.5-0.1-1.1-0.3-1.7-1.4-1.4-2.5l5.6-19.9c0.3-1.1 1.4-1.7 2.5-1.4C52.8 57.4 53.4 58.5 53.1 59.6zM64.2 70.4l-5.1 5.1c-0.4 0.4-0.9 0.6-1.4 0.6s-1-0.2-1.4-0.6c-0.8-0.8-0.8-2 0-2.8L60 69l-3.7-3.8c-0.8-0.8-0.8-2 0-2.8 0.8-0.8 2-0.8 2.8 0l5.1 5.2C65 68.4 65 69.6 64.2 70.4z" fill="#9b7bc5" data-fill-palette-color="accent"></path></g></svg></g></svg></g><g></g></svg></g></svg></g></svg></g></svg></g><defs></defs></svg><rect width="320" height="360" fill="none" stroke="none" visibility="hidden"></rect></g></svg></g></svg>